HIERARCHY
ROOT Hips
{
	OFFSET 0.00000 0.00000 0.00000
	CHANNELS 6 Xposition Yposition Zposition Zrotation Yrotation Xrotation 
	JOINT LHipJoint
	{
		OFFSET 0 0 0
		CHANNELS 3 Zrotation Yrotation Xrotation
		JOINT LeftHip
		{
			OFFSET 1.57358 -1.76629 0.73362
			CHANNELS 3 Zrotation Yrotation Xrotation
			JOINT LeftKnee
			{
				OFFSET 2.40600 -6.61045 0.00000
				CHANNELS 3 Zrotation Yrotation Xrotation
				JOINT LeftAnkle
				{
					OFFSET 2.66168 -7.31291 0.00000
					CHANNELS 3 Zrotation Yrotation Xrotation
					JOINT LeftToe
					{
						OFFSET 0.20870 -0.57341 2.12506
						CHANNELS 3 Zrotation Yrotation Xrotation
						End Site
						{
							OFFSET 0.00000 -0.00000 1.10557
						}
					}
				}
			}
		}
	}
	JOINT RHipJoint
	{
		OFFSET 0 0 0
		CHANNELS 3 Zrotation Yrotation Xrotation
		JOINT RightHip
		{
			OFFSET -1.49299 -1.76629 0.73362
			CHANNELS 3 Zrotation Yrotation Xrotation
			JOINT RightKnee
			{
				OFFSET -2.43663 -6.69460 0.00000
				CHANNELS 3 Zrotation Yrotation Xrotation
				JOINT RightAnkle
				{
					OFFSET -2.62959 -7.22474 0.00000
					CHANNELS 3 Zrotation Yrotation Xrotation
					JOINT RightToe
					{
						OFFSET -0.25784 -0.70841 2.21862
						CHANNELS 3 Zrotation Yrotation Xrotation
						End Site
						{
							OFFSET -0.00000 -0.00000 1.16452
						}
					}
				}
			}
		}
	}
	JOINT lowerback
	{
		OFFSET 0 0 0
		CHANNELS 3 Zrotation Yrotation Xrotation
		JOINT Chest
		{
			OFFSET -0.00034 2.12399 -0.25450
			CHANNELS 3 Zrotation Yrotation Xrotation
			JOINT Chest2
			{
				OFFSET 0.05594 2.14379 -0.03318
				CHANNELS 3 Zrotation Yrotation Xrotation
				JOINT lowerneck
				{
					OFFSET 0 0 0
					CHANNELS 3 Zrotation Yrotation Xrotation
					JOINT Neck
					{
						OFFSET -0.09835 1.62725 0.24211
						CHANNELS 3 Zrotation Yrotation Xrotation
						JOINT Head
						{
							OFFSET 0.10849 1.66041 -0.22648
							CHANNELS 3 Zrotation Yrotation Xrotation
							End Site
							{
								OFFSET 0.04385 1.68267 -0.10541
							}
						}
					}
				}
				JOINT LeftCollar
				{
					OFFSET 0 0 0
					CHANNELS 3 Zrotation Yrotation Xrotation
					JOINT LeftShoulder
					{
						OFFSET 3.29108 0.79398 -0.68179
CHANNELS 3 Zrotation Xrotation Yrotation
						JOINT LeftElbow
						{
OFFSET 0 -5.153100 -0.000000
CHANNELS 3 Zrotation Xrotation Yrotation
							JOINT LeftWrist
							{
OFFSET 0 -3.751380 -0.000000
CHANNELS 3 Zrotation Xrotation Yrotation
								JOINT lhand
								{
									OFFSET 0 0 0
CHANNELS 3 Zrotation Xrotation Yrotation
									JOINT LFingers
									{
OFFSET 0 -0.529170 0.000000
CHANNELS 3 Zrotation Xrotation Yrotation
										End Site
										{
OFFSET 0 -0.426630 0.000000
										}
									}
								}
								JOINT LThumb
								{
OFFSET 0 0.000000 0.000000
CHANNELS 3 Zrotation Xrotation Yrotation
									End Site
									{
OFFSET 0 -0.433150 0.433150
									}
								}
							}
						}
					}
				}
				JOINT RightCollar
				{
					OFFSET 0 0 0
					CHANNELS 3 Zrotation Yrotation Xrotation
					JOINT RightShoulder
					{
						OFFSET -3.07414 1.06285 -0.44338
CHANNELS 3 Zrotation Xrotation Yrotation
						JOINT RightElbow
						{
OFFSET 0 -5.296130 0.000000
CHANNELS 3 Zrotation Xrotation Yrotation
							JOINT RightWrist
							{
OFFSET 0 -3.761440 -0.000000
CHANNELS 3 Zrotation Xrotation Yrotation
								JOINT rhand
								{
									OFFSET 0 0 0
CHANNELS 3 Zrotation Xrotation Yrotation
									JOINT RFingers
									{
OFFSET 0 -0.747320 0.000000
CHANNELS 3 Zrotation Xrotation Yrotation
										End Site
										{
OFFSET 0 -0.602510 0.000000
										}
									}
								}
								JOINT RThumb
								{
OFFSET 0 0.000000 0.000000
CHANNELS 3 Zrotation Xrotation Yrotation
									End Site
									{
OFFSET 0 -0.611710 0.611710
									}
								}
							}
						}
					}
				}
			}
		}
	}
}
MOTION
Frames: 10
Frame Time: 0.008333333333333333
0.065093 16.732175 6.925231 4.979938 5.733681 1.312878 0.000000 0.000000 0.000000 -28.804425 -9.817848 -16.444367 5.362686 13.780939 42.366912 0.840759 -12.355581 -17.324083 0.014310 0.770533 2.117642 0.000000 0.000000 0.000000 11.829511 -1.401768 -19.348716 -19.645117 -19.995990 88.962466 0.131751 -6.729630 -0.325690 -0.016155 0.819320 -2.251783 -4.422486 2.284268 13.098505 0.066743 2.396209 1.376489 2.129667 1.284789 -6.078006 -9.309889 -5.108113 -24.970698 9.788010 -5.586190 12.261811 4.052985 -2.062988 8.415074 0.000000 0.000000 0.000000 7.319896 13.713651 -44.622323 138.206966 -49.096779 100.215963 22.616506 -25.710242 -11.621252 0.000000 0.000000 0.000000 -7.125000 0.000000 0.000000 -4.109619 42.503133 -0.253715 0.000000 0.000000 0.000000 -2.471420 14.825574 36.184427 -137.476602 -49.495688 -99.662265 -9.435817 -19.544179 -21.416682 0.000000 0.000000 0.000000 7.125000 0.000000 0.000000 12.183099 8.686040 10.448934
0.062080 16.707726 7.036493 5.164015 5.557042 1.367834 0.000000 0.000000 0.000000 -29.056075 -9.747544 -16.070501 5.387857 13.807617 42.472337 0.918878 -12.103742 -17.898848 0.012929 0.730799 2.008326 0.000000 0.000000 0.000000 11.489134 -1.171303 -20.150149 -19.820751 -19.997371 89.475998 0.130652 -6.658291 -0.477471 -0.017065 0.841761 -2.313550 -4.627057 2.299804 13.084915 -0.018971 2.383027 1.398867 2.157600 1.281368 -6.050418 -9.293066 -5.103939 -24.979894 9.843029 -5.594570 12.239433 4.067956 -2.060163 8.411621 0.000000 0.000000 0.000000 7.274889 13.264554 -44.640370 138.082899 -49.165137 100.122088 22.552919 -25.881325 -11.609357 0.000000 0.000000 0.000000 -7.125000 0.000000 0.000000 -4.164858 42.483800 -0.259145 0.000000 0.000000 0.000000 -2.305861 15.088523 36.211482 -137.354606 -49.561064 -99.569395 -9.425052 -19.436338 -21.444647 0.000000 0.000000 0.000000 7.125000 0.000000 0.000000 12.190098 8.659519 10.461802
0.059067 16.683276 7.147755 5.348092 5.380404 1.422791 0.000000 0.000000 0.000000 -29.307725 -9.677240 -15.696636 5.413028 13.834294 42.577761 0.996997 -11.851904 -18.473613 0.011548 0.691064 1.899010 0.000000 0.000000 0.000000 11.148757 -0.940838 -20.951581 -19.996385 -19.998752 89.989530 0.129554 -6.586951 -0.629252 -0.017975 0.864202 -2.375317 -4.831629 2.315340 13.071325 -0.104685 2.369845 1.421245 2.185533 1.277947 -6.022830 -9.276243 -5.099764 -24.989090 9.898048 -5.602950 12.217055 4.082927 -2.057338 8.408169 0.000000 0.000000 0.000000 7.229882 12.815457 -44.658417 137.958831 -49.233495 100.028214 22.489332 -26.052408 -11.597462 0.000000 0.000000 0.000000 -7.125000 0.000000 0.000000 -4.220097 42.464466 -0.264574 0.000000 0.000000 0.000000 -2.140302 15.351472 36.238536 -137.232610 -49.626441 -99.476525 -9.414287 -19.328497 -21.472612 0.000000 0.000000 0.000000 7.125000 0.000000 0.000000 12.197097 8.632998 10.474670
0.056478 16.660974 7.258929 5.472755 5.231739 1.481559 0.000000 0.000000 0.000000 -29.484094 -9.613152 -15.334166 5.437096 13.859721 42.678398 1.068546 -11.665626 -19.003828 0.010245 0.651813 1.791062 0.000000 0.000000 0.000000 10.891679 -0.732062 -21.744976 -20.152458 -19.999188 90.445874 0.129381 -6.536759 -0.829080 -0.019309 0.895054 -2.460202 -4.953088 2.313570 13.083906 -0.184943 2.343829 1.417432 2.173526 1.267375 -6.033587 -9.258130 -5.088449 -24.954730 9.959627 -5.604731 12.163867 4.100706 -2.052100 8.386780 0.000000 0.000000 0.000000 7.203620 12.411157 -44.676296 137.832656 -49.302660 99.932635 22.460741 -26.173336 -11.598086 0.000000 0.000000 0.000000 -7.125000 0.000000 0.000000 -4.245826 42.462173 -0.266409 0.000000 0.000000 0.000000 -1.957171 15.659533 36.270663 -137.143837 -49.673979 -99.408939 -9.385792 -19.206463 -21.460754 0.000000 0.000000 0.000000 7.125000 0.000000 0.000000 12.214961 8.647314 10.487095
0.054815 16.643367 7.369908 5.467514 5.144236 1.548661 0.000000 0.000000 0.000000 -29.495863 -9.562652 -14.996613 5.458752 13.882413 42.768569 1.125731 -11.622690 -19.436636 0.009116 0.613617 1.686109 0.000000 0.000000 0.000000 10.816730 -0.570709 -22.520798 -20.265760 -19.997556 90.777181 0.131233 -6.532804 -1.133961 -0.021569 0.944298 -2.595631 -4.892828 2.273961 13.153708 -0.253269 2.289751 1.356356 2.074190 1.241168 -6.128183 -9.237196 -5.061520 -24.825139 10.035548 -5.592082 12.043315 4.124621 -2.041586 8.326174 0.000000 0.000000 0.000000 7.218339 12.104801 -44.693809 137.701872 -49.373592 99.833331 22.508666 -26.184604 -11.626082 0.000000 0.000000 0.000000 -7.125000 0.000000 0.000000 -4.207033 42.497136 -0.260383 0.000000 0.000000 0.000000 -1.735619 16.066228 36.313881 -137.127705 -49.682516 -99.396636 -9.318533 -19.053395 -21.361826 0.000000 0.000000 0.000000 7.125000 0.000000 0.000000 12.256578 8.750918 10.498551
0.053151 16.625760 7.480888 5.462272 5.056733 1.615764 0.000000 0.000000 0.000000 -29.507633 -9.512153 -14.659061 5.480409 13.905105 42.858740 1.182916 -11.579754 -19.869444 0.007986 0.575420 1.581155 0.000000 0.000000 0.000000 10.741781 -0.409355 -23.296619 -20.379062 -19.995924 91.108488 0.133085 -6.528850 -1.438841 -0.023829 0.993542 -2.731060 -4.832568 2.234352 13.223509 -0.321596 2.235674 1.295279 1.974854 1.214961 -6.222780 -9.216262 -5.034591 -24.695548 10.111470 -5.579434 11.922763 4.148537 -2.031072 8.265569 0.000000 0.000000 0.000000 7.233059 11.798446 -44.711323 137.571088 -49.444524 99.734027 22.556592 -26.195871 -11.654078 0.000000 0.000000 0.000000 -7.125000 0.000000 0.000000 -4.168240 42.532100 -0.254357 0.000000 0.000000 0.000000 -1.514068 16.472923 36.357099 -137.111573 -49.691053 -99.384333 -9.251273 -18.900327 -21.262898 0.000000 0.000000 0.000000 7.125000 0.000000 0.000000 12.298195 8.854522 10.510007
0.051616 16.608869 7.591812 5.439862 4.988634 1.686977 0.000000 0.000000 0.000000 -29.498420 -9.472784 -14.324826 5.501852 13.927552 42.947994 1.238914 -11.541150 -20.291787 0.006776 0.510676 1.403252 0.000000 0.000000 0.000000 10.688648 -0.263047 -24.079974 -20.486426 -19.994264 91.422430 0.134716 -6.525176 -1.751826 -0.025740 1.035282 -2.845854 -4.748836 2.184338 13.300002 -0.387266 2.170943 1.222952 1.866840 1.183229 -6.331920 -9.192214 -5.006973 -24.573529 10.187388 -5.568043 11.826455 4.172024 -2.020638 8.214451 0.000000 0.000000 0.000000 7.247687 11.516788 -44.723651 137.445705 -49.512446 99.638802 22.605905 -26.188343 -11.688717 0.000000 0.000000 0.000000 -7.125000 0.000000 0.000000 -4.129183 42.574340 -0.247626 0.000000 0.000000 0.000000 -1.294921 16.898446 36.413872 -137.101755 -49.696236 -99.376845 -9.185208 -18.754592 -21.164400 0.000000 0.000000 0.000000 7.125000 0.000000 0.000000 12.339112 8.957577 10.520897
0.050957 16.596880 7.702352 5.300133 5.053131 1.786281 0.000000 0.000000 0.000000 -29.345823 -9.509474 -14.013260 5.521845 13.948330 43.030977 1.286809 -11.532142 -20.642615 0.005018 0.264518 0.726860 0.000000 0.000000 0.000000 10.784594 -0.219546 -24.914800 -20.553215 -19.992412 91.617711 0.134842 -6.523418 -2.120200 -0.025269 1.025741 -2.819647 -4.504719 2.063221 13.422218 -0.434784 2.033411 1.073745 1.699524 1.113741 -6.540447 -9.146893 -4.974646 -24.503257 10.263279 -5.565250 11.895817 4.192582 -2.010751 8.228166 0.000000 0.000000 0.000000 7.261685 11.403894 -44.700551 137.357229 -49.559807 99.571448 22.664690 -26.052380 -11.768750 0.000000 0.000000 0.000000 -7.125000 0.000000 0.000000 -4.088319 42.666299 -0.236076 0.000000 0.000000 0.000000 -1.092201 17.452622 36.563267 -137.135087 -49.678503 -99.402268 -9.127301 -18.658960 -21.068830 0.000000 0.000000 0.000000 7.125000 0.000000 0.000000 12.375237 9.056881 10.527928
0.050298 16.584891 7.812892 5.160405 5.117629 1.885585 0.000000 0.000000 0.000000 -29.193226 -9.546163 -13.701695 5.541838 13.969107 43.113961 1.334703 -11.523135 -20.993444 0.003260 0.018360 0.050468 0.000000 0.000000 0.000000 10.880540 -0.176046 -25.749627 -20.620004 -19.990560 91.812992 0.134967 -6.521660 -2.488573 -0.024798 1.016199 -2.793440 -4.260601 1.942104 13.544433 -0.482302 1.895879 0.924538 1.532207 1.044254 -6.748973 -9.101573 -4.942319 -24.432984 10.339169 -5.562457 11.965179 4.213140 -2.000865 8.241882 0.000000 0.000000 0.000000 7.275683 11.291000 -44.677451 137.268753 -49.607168 99.504094 22.723475 -25.916418 -11.848784 0.000000 0.000000 0.000000 -7.125000 0.000000 0.000000 -4.047455 42.758259 -0.224526 0.000000 0.000000 0.000000 -0.889481 18.006798 36.712663 -137.168418 -49.660770 -99.427690 -9.069395 -18.563328 -20.973261 0.000000 0.000000 0.000000 7.125000 0.000000 0.000000 12.411361 9.156185 10.534958
0.049639 16.572902 7.923432 5.020676 5.182126 1.984890 0.000000 0.000000 0.000000 -29.040629 -9.582853 -13.390130 5.561830 13.989884 43.196945 1.382598 -11.514127 -21.344273 0.001503 -0.227797 -0.625924 0.000000 0.000000 0.000000 10.976486 -0.132545 -26.584454 -20.686792 -19.988708 92.008274 0.135093 -6.519903 -2.856946 -0.024328 1.006658 -2.767233 -4.016483 1.820987 13.666649 -0.529820 1.758347 0.775330 1.364890 0.974766 -6.957499 -9.056252 -4.909991 -24.362712 10.415060 -5.559663 12.034542 4.233697 -1.990978 8.255597 0.000000 0.000000 0.000000 7.289681 11.178106 -44.654352 137.180277 -49.654529 99.436741 22.782260 -25.780455 -11.928817 0.000000 0.000000 0.000000 -7.125000 0.000000 0.000000 -4.006591 42.850219 -0.212976 0.000000 0.000000 0.000000 -0.686761 18.560975 36.862059 -137.201750 -49.643038 -99.453113 -9.011488 -18.467695 -20.877692 0.000000 0.000000 0.000000 7.125000 0.000000 0.000000 12.447486 9.255490 10.541989
